<?xml version="1.0" encoding="UTF-8"?>
<svg width="1440px" height="239px" viewBox="0 0 1440 239" version="1.1" xmlns="http://www.w3.org/2000/svg" xmlns:xlink="http://www.w3.org/1999/xlink">
    <!-- Generator: Sketch 50.2 (55047) - http://www.bohemiancoding.com/sketch -->
    <title>bg copy</title>
    <desc>Created with Sketch.</desc>
    <defs>
        <rect id="path-1" x="0" y="0" width="1440" height="263"></rect>
    </defs>
    <g id="Design-v1" stroke="none" stroke-width="1" fill="none" fill-rule="evenodd">
        <g id="bg-copy" transform="translate(0.000000, -10.000000)">
            <mask id="mask-2" fill="white">
                <use xlink:href="#path-1"></use>
            </mask>
            <g id="Mask"></g>
            <g id="bg" opacity="0.2" mask="url(#mask-2)" stroke="#FA9300">
                <g transform="translate(956.000000, 139.500000) rotate(-711.000000) translate(-956.000000, -139.500000) translate(-113.000000, -119.000000)">
                    <path d="M136.155015,461.21976 C136.155015,461.21976 465.891264,223.311185 924.754995,261.731203 C1431.53886,304.163158 1856.31755,242.521194 1941.63392,57.8095672" id="Stroke-1"></path>
                    <path d="M1969.63291,49.5768961 C1941.57074,110.332244 1859.38109,184.36762 1737.75454,221.836004 C1537.54468,283.656769 1233.21196,283.446936 924.096906,250.120526 C747.904763,231.124782 606.224244,276.470748 498.769427,312.397898 C490.373835,315.205514 482.268779,318.348567 473.997703,321.295087 C272.302881,393.137566 116.720406,469.030402 116.720406,469.030402" id="Stroke-3"></path>
                    <path d="M1997.6342,41.343634 C1974.24829,91.972352 1892.5913,187.287984 1767.50827,226.516301 C1556.85523,292.810042 1229.43406,278.234079 923.438817,238.510735 C732.553811,213.731301 594.910832,284.885175 500.557842,323.361346 C492.381306,326.695021 484.68208,330.548844 476.51246,334.014034 C280.44852,417.16382 97.285798,476.840453 97.285798,476.840453" id="Stroke-5"></path>
                    <path d="M2025.63296,33.1109629 C2006.92561,73.6145284 1925.80358,190.207462 1797.25948,231.194234 C1576.16325,301.960952 1225.78505,272.423346 922.778192,226.900058 C717.26258,196.023662 584.028383,294.098147 502.348333,334.322429 C494.39777,338.236838 487.090538,342.740846 479.026988,346.730617 C288.476329,441.023686 77.850959,484.652572 77.850959,484.652572" id="Stroke-7"></path>
                    <path d="M2053.63195,24.8782918 C2039.60086,55.2552271 1959.01609,193.126941 1827.01322,235.873644 C1595.47611,311.114817 1222.3023,266.151574 922.120103,215.28938 C702.084567,178.007186 573.768744,303.981993 504.136749,345.28499 C496.465193,349.834807 489.494615,354.926937 481.541745,359.450155 C296.352183,464.752037 58.4140447,492.461737 58.4140447,492.461737" id="Stroke-9"></path>
                    <path d="M2081.63094,16.6456207 C2072.27611,36.8974035 1992.2286,196.046419 1856.76465,240.551577 C1614.78436,320.267204 1219.00401,259.519244 921.459708,203.678703 C687.056434,159.687782 564.286175,314.347566 505.925164,356.246074 C498.622544,361.488928 491.889468,367.110073 484.058809,372.166738 C304.05971,488.385816 38.9794363,500.273856 38.9794363,500.273856" id="Stroke-11"></path>
                    <path d="M2109.63223,8.41221078 C2104.95597,18.538841 2025.43881,198.966636 1886.51608,245.230248 C1634.09491,329.418852 1215.89481,252.606892 920.801619,192.068765 C672.208157,141.067668 555.665993,324.963608 507.715886,367.207896 C500.920552,373.195508 494.277404,379.289514 486.573567,384.885537 C311.598911,511.956793 19.5448279,508.083759 19.5448279,508.083759" id="Stroke-13"></path>
                    <path d="M2137.63099,0.179539701 C2137.63099,0.179539701 2058.65109,201.886114 1916.26959,249.909659 C1653.40293,338.57124 1212.98598,245.47658 920.143299,180.458087 C657.56487,122.158665 547.944861,335.574478 509.506377,378.170457 C503.39588,384.939769 496.655887,391.468216 489.088094,397.60212 C318.971859,535.488611 0.109988945,515.894401 0.109988945,515.894401" id="Stroke-15"></path>
                </g>
            </g>
        </g>
    </g>
</svg>