<?xml version="1.0" encoding="UTF-8"?>
<svg width="40px" height="40px" viewBox="0 0 40 40" version="1.1" xmlns="http://www.w3.org/2000/svg" xmlns:xlink="http://www.w3.org/1999/xlink">
    <!-- Generator: Sketch 50.2 (55047) - http://www.bohemiancoding.com/sketch -->
    <title>Group 5</title>
    <desc>Created with Sketch.</desc>
    <defs></defs>
    <g id="Design-v1" stroke="none" stroke-width="1" fill="none" fill-rule="evenodd">
        <g id="7.0.0-Contacts-Page-Copy" transform="translate(-260.000000, -862.000000)">
            <g id="Group-7-Copy" transform="translate(260.000000, 862.000000)">
                <g id="Group-5">
                    <circle id="Oval-15" fill="#FFEFDB" opacity="0.5" cx="20" cy="20" r="20"></circle>
                    <g id="phone" transform="translate(12.000000, 12.000000)" stroke="#FFA02F" stroke-linecap="round" stroke-linejoin="round" stroke-width="2">
                        <path d="M15.910499,11.9360787 L15.910499,14.3360787 C15.9123277,14.7865947 15.7241374,15.2170053 15.3921613,15.5215706 C15.0601853,15.8261358 14.6151902,15.9766291 14.166499,15.9360787 C11.7047661,15.6685913 9.34009837,14.8273943 7.26249904,13.4800787 C5.32956154,12.2518097 3.69076796,10.6130162 2.46249904,8.68007866 C1.11048148,6.59304184 0.26909344,4.2168743 0.00649903817,1.74407866 C-0.0339223936,1.29677652 0.115516645,0.853080594 0.418311662,0.5213755 C0.721106679,0.189670406 1.14937443,0.000501607345 1.59849904,7.86551544e-05 L3.99849904,7.86551544e-05 C4.80159028,-0.00782547057 5.48609971,0.580852641 5.59849904,1.37607866 C5.69979745,2.14413182 5.8876586,2.89826016 6.15849904,3.62407866 C6.37828704,4.20877868 6.2377111,4.86792367 5.79849904,5.31207866 L4.78249904,6.32807866 C5.92134342,8.33091532 7.57966237,9.98923428 9.58249904,11.1280787 L10.598499,10.1120787 C11.042654,9.6728666 11.701799,9.53229065 12.286499,9.75207866 C13.0123175,10.0229191 13.7664459,10.2107802 14.534499,10.3120787 C15.3389492,10.4255669 15.930651,11.1239127 15.910499,11.9360787 Z" id="Shape"></path>
                    </g>
                </g>
            </g>
        </g>
    </g>
</svg>