<?xml version="1.0" encoding="UTF-8"?>
<svg width="16px" height="16px" viewBox="0 0 16 16" version="1.1" xmlns="http://www.w3.org/2000/svg" xmlns:xlink="http://www.w3.org/1999/xlink">
    <!-- Generator: Sketch 50.2 (55047) - http://www.bohemiancoding.com/sketch -->
    <title>phone</title>
    <desc>Created with Sketch.</desc>
    <defs></defs>
    <g id="Design-v1" stroke="none" stroke-width="1" fill="none" fill-rule="evenodd">
        <g id="phone" transform="translate(8.000000, 8.000000) scale(-1, 1) translate(-8.000000, -8.000000) " fill="#FFFFFF" fill-rule="nonzero">
            <path d="M15.4186562,0.76921875 L12.1686562,0.0193125 C11.8150937,-0.06228125 11.4536875,0.1209375 11.3106562,0.45465625 L9.81065625,3.9545625 C9.67902845,4.26170039 9.76647028,4.61887134 10.0250937,4.83046875 L11.919375,6.38034375 C10.7952188,8.7764375 8.8275625,10.7712188 6.38034375,11.9193438 L4.83046875,10.0250938 C4.61887134,9.76647028 4.26170039,9.67902845 3.9545625,9.81065625 L0.45465625,11.3106563 C0.12103125,11.453625 -0.0623125,11.815 0.0193125,12.1686563 L0.76921875,15.4186563 C0.84715625,15.756375 1.148375,16 1.5,16 C9.50271875,16 16,9.514625 16,1.5 C16,1.15075 15.7589375,0.84771875 15.4186562,0.76921875 Z" id="Shape"></path>
        </g>
    </g>
</svg>