<?xml version="1.0" encoding="UTF-8"?>
<svg width="32px" height="32px" viewBox="0 0 32 32" version="1.1" xmlns="http://www.w3.org/2000/svg" xmlns:xlink="http://www.w3.org/1999/xlink">
    <!-- Generator: Sketch 50.2 (55047) - http://www.bohemiancoding.com/sketch -->
    <title>Group 21</title>
    <desc>Created with Sketch.</desc>
    <defs></defs>
    <g id="Symbols" stroke="none" stroke-width="1" fill="none" fill-rule="evenodd">
        <g id="Group-21">
            <circle id="Oval-5-Copy-2" fill="#DEE2E7" cx="16" cy="16" r="16"></circle>
            <g id="google-plus-g" transform="translate(8.800000, 11.200000)" fill="#22292E" fill-rule="nonzero">
                <path d="M8.74075376,3.84380898 C8.78360918,4.07028377 8.81419683,4.29675855 8.81419683,4.59053084 C8.81419683,7.15514984 7.09425495,8.97300024 4.50519387,8.97300024 C2.02630909,8.97300024 0.0186937505,6.96540827 0.0186937505,4.48650012 C0.0186937505,2.00759197 2.02630909,0 4.50519387,0 C5.71710972,0 6.72701622,0.440681801 7.5104713,1.17518263 L6.29243325,2.34424305 C5.96190438,2.02595858 5.38045864,1.65259765 4.50519387,1.65259765 C2.97501692,1.65259765 1.72636786,2.91958995 1.72636786,4.48650012 C1.72636786,6.05341029 2.97501692,7.32040259 4.50519387,7.32040259 C6.28018885,7.32040259 6.9473688,6.04116588 7.05139952,5.38623033 L4.50519387,5.38623033 L4.50519387,3.84378561 L8.74075376,3.84378561 L8.74075376,3.84380898 Z M13.0731706,3.99422357 L13.0731706,2.69190007 L11.7645847,2.69190007 L11.7645847,3.99422357 L10.4622612,3.99422357 L10.4622612,5.30280947 L11.7645847,5.30280947 L11.7645847,6.60513297 L13.0731706,6.60513297 L13.0731706,5.30280947 L14.3754941,5.30280947 L14.3754941,3.99422357 L13.0731706,3.99422357 Z" id="Shape"></path>
            </g>
        </g>
    </g>
</svg>