<?xml version="1.0" encoding="UTF-8"?>
<svg width="32px" height="32px" viewBox="0 0 32 32" version="1.1" xmlns="http://www.w3.org/2000/svg" xmlns:xlink="http://www.w3.org/1999/xlink">
    <!-- Generator: Sketch 50.2 (55047) - http://www.bohemiancoding.com/sketch -->
    <title>Group 20</title>
    <desc>Created with Sketch.</desc>
    <defs></defs>
    <g id="Symbols" stroke="none" stroke-width="1" fill="none" fill-rule="evenodd">
        <g id="Group-20">
            <circle id="Oval-5-Copy-3" fill="#DEE2E7" cx="16" cy="16" r="16"></circle>
            <g id="linkedin-in" transform="translate(9.600000, 9.600000)" fill="#22292E" fill-rule="nonzero">
                <path d="M2.86507476,12.8 L0.211381388,12.8 L0.211381388,4.25428571 L2.86507476,4.25428571 L2.86507476,12.8 Z M1.53679982,3.08857143 C0.688417764,3.08857143 0,2.38571429 0,1.53714286 C0,0.688571429 0.688417764,0 1.53679982,0 C2.38518188,0 3.07359964,0.688571429 3.07359964,1.53714286 C3.07359964,2.38571429 2.38518188,3.08857143 1.53679982,3.08857143 Z M12.7971435,12.8 L10.1491631,12.8 L10.1491631,8.64 C10.1491631,7.64857143 10.1291676,6.37714286 8.7694711,6.37714286 C7.38977907,6.37714286 7.17839768,7.45428571 7.17839768,8.56857143 L7.17839768,12.8 L4.52756081,12.8 L4.52756081,4.25428571 L7.07270699,4.25428571 L7.07270699,5.42 L7.10984155,5.42 C7.4640482,4.74857143 8.32956929,4.04 9.62070966,4.04 C12.3058246,4.04 12.8,5.80857143 12.8,8.10571429 L12.8,12.8 L12.7971435,12.8 Z" id="Shape"></path>
            </g>
        </g>
    </g>
</svg>