<svg width="1440" height="239" viewBox="0 0 1440 239" xmlns="http://www.w3.org/2000/svg" xmlns:xlink="http://www.w3.org/1999/xlink"><title>bg copy</title><defs><path id="a" d="M0 0h1440v263H0z"/></defs><g transform="translate(0 -10)" fill="none" fill-rule="evenodd"><mask id="b" fill="#fff"><use xlink:href="#a"/></mask><g opacity=".2" mask="url(#b)" stroke="#FA9300"><path d="M2.928 193.795S365.82 10.397 813.025 120.127c493.907 121.188 923.099 126.755 1036.26-42.337"/><path d="M1878.227 74.04c-37.22 55.617-129.98 115.883-255.97 133.864-207.416 29.74-507.97-18.076-808.065-99.348-171.052-46.325-318.081-23.7-429.834-5.025-8.731 1.46-17.228 3.296-25.858 4.912C148.05 147.85-17.49 198.47-17.49 198.47"/><path d="M1907.172 70.288c-31.018 46.347-126.58 127.715-256.26 146.893-218.43 32.524-539.54-33.092-835.554-120.195-184.659-54.335-331.738-5.59-430.948 17.653-8.598 2.013-16.805 4.615-25.416 6.76-206.658 51.455-396.9 81.744-396.9 81.744"/><path d="M1936.114 66.536c-24.813 37.079-123.176 139.546-256.549 159.92-229.445 35.308-570.888-48.677-863.043-141.041-198.155-62.646-345.092 13.379-432.058 40.33-8.466 2.623-16.387 5.928-24.976 8.607-202.955 63.324-417.812 73.466-417.812 73.466"/><path d="M1965.056 62.785c-18.61 27.808-119.77 151.376-256.836 172.947-240.456 38.094-602.002-64.693-890.532-161.888C606.194 2.6 459.751 106.951 384.515 136.852c-8.289 3.294-15.97 7.233-24.533 10.457C160.6 222.344-78.744 212.49-78.744 212.49"/><path d="M1993.998 59.034c-12.408 18.539-116.366 163.206-257.124 185.972-251.472 40.88-632.876-81.034-918.022-182.733-224.636-80.118-370.088 53.432-434.285 85.685-8.033 4.036-15.563 8.535-24.088 12.304-195.964 86.63-459.64 56.905-459.64 56.905"/><path d="M2022.943 55.282c-6.203 9.27-112.966 175.038-257.416 199-262.483 43.664-663.519-97.623-945.509-203.579-237.554-89.261-381.43 74.14-435.397 108.362-7.649 4.851-15.163 9.831-23.648 14.153-192.699 98.135-480.551 48.622-480.551 48.622"/><path d="M2051.885 51.53S1942.323 238.4 1794.182 263.559c-273.5 46.448-693.931-114.397-972.998-224.425-250.225-98.658-391.881 94.982-436.51 131.04-7.094 5.73-14.772 11.124-23.207 15.998-189.592 109.577-501.463 40.343-501.463 40.343"/></g></g></svg>