<svg width="1230" height="1095" viewBox="0 0 1230 1095" xmlns="http://www.w3.org/2000/svg"><title>bg</title><defs><linearGradient x1="42.645%" y1="29.091%" x2="129.046%" y2="97.077%" id="a"><stop stop-color="#FAD961" offset="0%"/><stop stop-color="#F76B1C" offset="100%"/></linearGradient></defs><g fill="url(#a)" fill-rule="evenodd"><path d="M427.395 132.798l627.853 376.05c37.325 22.355 53.314 68.21 37.981 108.927l-92.916 246.741a90 90 0 0 1-62.286 55.567L253.061 1092.26c-48.206 12.117-97.108-17.139-109.225-65.345a89.956 89.956 0 0 1-.192-.777L2.52 442.808c-8.572-35.43 5.074-72.53 34.559-93.962l291.154-211.637c29.182-21.212 68.211-22.948 99.162-4.41z" opacity=".1"/><path d="M558.395 12.798l627.853 376.05c37.325 22.355 53.314 68.21 37.981 108.927l-92.916 246.741a90 90 0 0 1-62.286 55.567L384.061 972.26c-48.206 12.117-97.108-17.139-109.225-65.345a89.976 89.976 0 0 1-.192-.777L133.52 322.808c-8.572-35.43 5.074-72.53 34.559-93.962L459.233 17.209c29.182-21.212 68.211-22.948 99.162-4.41z"/></g></svg>