<?xml version="1.0" encoding="UTF-8"?>
<svg width="16px" height="12px" viewBox="0 0 16 12" version="1.1" xmlns="http://www.w3.org/2000/svg" xmlns:xlink="http://www.w3.org/1999/xlink">
    <!-- Generator: Sketch 50.2 (55047) - http://www.bohemiancoding.com/sketch -->
    <title>envelope.1</title>
    <desc>Created with Sketch.</desc>
    <defs></defs>
    <g id="Symbols" stroke="none" stroke-width="1" fill="none" fill-rule="evenodd">
        <g id="envelope.1" fill="#A6A9AB" fill-rule="nonzero">
            <path d="M15.696875,3.9625 C15.81875,3.865625 16,3.95625 16,4.109375 L16,10.5 C16,11.328125 15.328125,12 14.5,12 L1.5,12 C0.671875,12 0,11.328125 0,10.5 L0,4.1125 C0,3.95625 0.178125,3.86875 0.303125,3.965625 C1.003125,4.509375 1.93125,5.2 5.11875,7.515625 C5.778125,7.996875 6.890625,9.009375 8,9.003125 C9.115625,9.0125 10.25,7.978125 10.884375,7.515625 C14.071875,5.2 14.996875,4.50625 15.696875,3.9625 Z M8,8 C8.725,8.0125 9.76875,7.0875 10.29375,6.70625 C14.440625,3.696875 14.75625,3.434375 15.7125,2.684375 C15.89375,2.54375 16,2.325 16,2.09375 L16,1.5 C16,0.671875 15.328125,2.84217094e-14 14.5,2.84217094e-14 L1.5,2.84217094e-14 C0.671875,2.7533531e-14 0,0.671875 0,1.5 L0,2.09375 C0,2.325 0.10625,2.540625 0.2875,2.684375 C1.24375,3.43125 1.559375,3.696875 5.70625,6.70625 C6.23125,7.0875 7.275,8.0125 8,8 Z" id="Shape"></path>
        </g>
    </g>
</svg>