<svg width="16" height="16" viewBox="0 0 16 16" xmlns="http://www.w3.org/2000/svg"><title>Shape</title><path d="M14.286 0H1.714C.767 0 0 .767 0 1.714v12.572C0 15.233.767 16 1.714 16h12.572c.947 0 1.714-.768 1.714-1.714V1.714C16 .767 15.232 0 14.286 0zM3.357 13.714a.536.536 0 0 1-.522-.415L2.3 10.978a.536.536 0 0 1 .31-.613l2.5-1.072a.536.536 0 0 1 .626.154L6.843 10.8A8.28 8.28 0 0 0 10.8 6.843L9.446 5.736a.536.536 0 0 1-.153-.626l1.072-2.5a.536.536 0 0 1 .613-.31l2.321.535a.536.536 0 0 1 .415.522c0 5.725-4.64 10.357-10.357 10.357z" fill="#A6A9AB" fill-rule="nonzero"/></svg>