<svg width="14" height="16" viewBox="0 0 14 16" xmlns="http://www.w3.org/2000/svg"><title>calendar-alt.1</title><path d="M13.625 4.935H.375A.374.374 0 0 1 0 4.565v-1.11c0-.818.672-1.481 1.5-1.481H3V.37c0-.203.169-.37.375-.37h1.25C4.831 0 5 .167 5 .37v1.604h4V.37c0-.203.169-.37.375-.37h1.25c.206 0 .375.167.375.37v1.604h1.5c.828 0 1.5.663 1.5 1.48v1.11c0 .204-.169.37-.375.37zm-13.25.987h13.25c.206 0 .375.166.375.37v8.018a1.49 1.49 0 0 1-1.5 1.48h-11A1.49 1.49 0 0 1 0 14.31V6.292c0-.204.169-.37.375-.37zM4 12.213a.374.374 0 0 0-.375-.37h-1.25a.374.374 0 0 0-.375.37v1.234c0 .203.169.37.375.37h1.25a.374.374 0 0 0 .375-.37v-1.234zm0-3.947a.374.374 0 0 0-.375-.37h-1.25a.374.374 0 0 0-.375.37v1.233c0 .204.169.37.375.37h1.25A.374.374 0 0 0 4 9.5V8.266zm4 3.947a.374.374 0 0 0-.375-.37h-1.25a.374.374 0 0 0-.375.37v1.234c0 .203.169.37.375.37h1.25a.374.374 0 0 0 .375-.37v-1.234zm0-3.947a.374.374 0 0 0-.375-.37h-1.25a.374.374 0 0 0-.375.37v1.233c0 .204.169.37.375.37h1.25A.374.374 0 0 0 8 9.5V8.266zm4 3.947a.374.374 0 0 0-.375-.37h-1.25a.374.374 0 0 0-.375.37v1.234c0 .203.169.37.375.37h1.25a.374.374 0 0 0 .375-.37v-1.234zm0-3.947a.374.374 0 0 0-.375-.37h-1.25a.374.374 0 0 0-.375.37v1.233c0 .204.169.37.375.37h1.25A.374.374 0 0 0 12 9.5V8.266z" fill="#FE9E3C" fill-rule="nonzero"/></svg>