<svg width="40" height="40" viewBox="0 0 40 40" xmlns="http://www.w3.org/2000/svg"><title>Group 5</title><g fill="none" fill-rule="evenodd"><circle fill="#FFEFDB" opacity=".5" cx="20" cy="20" r="20"/><path d="M27.91 23.936v2.4a1.6 1.6 0 0 1-1.744 1.6 15.832 15.832 0 0 1-6.904-2.456 15.6 15.6 0 0 1-4.8-4.8 15.832 15.832 0 0 1-2.456-6.936A1.6 1.6 0 0 1 13.598 12h2.4a1.6 1.6 0 0 1 1.6 1.376c.102.768.29 1.522.56 2.248a1.6 1.6 0 0 1-.36 1.688l-1.016 1.016a12.8 12.8 0 0 0 4.8 4.8l1.016-1.016a1.6 1.6 0 0 1 1.688-.36c.726.27 1.48.459 2.248.56a1.6 1.6 0 0 1 1.376 1.624z" stroke="#FFA02F" stroke-linecap="round" stroke-linejoin="round" stroke-width="2"/></g></svg>