<svg width="14" height="16" viewBox="0 0 14 16" xmlns="http://www.w3.org/2000/svg"><title>Shape</title><path d="M14 11.103V.74c0-.41-.334-.74-.75-.74H3C1.344 0 0 1.326 0 2.96v9.87c0 1.635 1.344 2.96 3 2.96h10.25c.416 0 .75-.33.75-.74v-.493a.742.742 0 0 0-.278-.577c-.131-.475-.131-1.828 0-2.303a.731.731 0 0 0 .278-.574zM4 4.133c0-.102.084-.185.188-.185h6.625c.103 0 .187.083.187.185v.617a.187.187 0 0 1-.188.185H4.189A.187.187 0 0 1 4 4.75v-.617zm0 1.974c0-.102.084-.185.188-.185h6.625c.103 0 .187.083.187.185v.616a.187.187 0 0 1-.188.185H4.189A.187.187 0 0 1 4 6.723v-.616zm7.919 7.71H3c-.553 0-1-.441-1-.987 0-.543.45-.987 1-.987h8.919c-.06.527-.06 1.447 0 1.974z" fill="#FE9E3C" fill-rule="nonzero"/></svg>