<?xml version="1.0" encoding="UTF-8" standalone="no"?>
<svg
   xmlns:dc="http://purl.org/dc/elements/1.1/"
   xmlns:cc="http://creativecommons.org/ns#"
   xmlns:rdf="http://www.w3.org/1999/02/22-rdf-syntax-ns#"
   xmlns:svg="http://www.w3.org/2000/svg"
   xmlns="http://www.w3.org/2000/svg"
   viewBox="0 0 105.33333 72"
   height="72"
   width="105.33333"
   xml:space="preserve"
   id="svg2"
   version="1.1"><metadata
     id="metadata8"><rdf:RDF><cc:Work
         rdf:about=""><dc:format>image/svg+xml</dc:format><dc:type
           rdf:resource="http://purl.org/dc/dcmitype/StillImage" /></cc:Work></rdf:RDF></metadata><defs
     id="defs6"><clipPath
       id="clipPath18"
       clipPathUnits="userSpaceOnUse"><path
         id="path16"
         d="M 0,54 H 79 V 0 H 0 Z" /></clipPath></defs><g
     transform="matrix(1.3333333,0,0,-1.3333333,0,72)"
     id="g10"><g
       id="g12"><g
         clip-path="url(#clipPath18)"
         id="g14"><g
           transform="translate(61.1148,16.89)"
           id="g20"><path
             id="path22"
             style="fill:#ffffff;fill-opacity:1;fill-rule:nonzero;stroke:none"
             d="m 0,0 c 1.577,0 2.431,0.726 2.431,2.943 v 2.603 c 0,2.772 -0.896,3.625 -3.029,3.625 h -2.09 l 0,-9.171 z m -0.854,13.437 c 1.749,0 2.815,0.768 2.815,3.157 v 1.663 c 0,2.133 -0.726,3.071 -2.389,3.071 h -2.26 V 13.437 Z M -7.38,25.594 h 7.081 c 4.862,0 6.952,-2.261 6.952,-6.868 v -1.195 c 0,-3.071 -0.938,-4.99 -3.027,-5.843 V 11.603 C 6.142,10.75 7.122,8.531 7.122,5.375 v -2.56 c 0,-4.606 -2.431,-7.08 -7.122,-7.08 h -7.38 z" /></g><g
           transform="translate(8.1558,53.6166)"
           id="g24"><path
             id="path26"
             style="fill:#ffffff;fill-opacity:1;fill-rule:nonzero;stroke:none"
             d="M 0,0 C 0,0 10.378,-0.096 13.014,-10.183 13.014,-10.183 1.659,-11.814 0,0" /></g><g
           transform="translate(28.5767,50.018)"
           id="g28"><path
             id="path30"
             style="fill:#ffffff;fill-opacity:1;fill-rule:nonzero;stroke:none"
             d="m 0,0 c 0,0 -0.517,-5.605 -6.082,-6.561 0,0 -0.375,6.199 6.082,6.561" /></g><g
           transform="translate(40.5581,36.8705)"
           id="g32"><path
             id="path34"
             style="fill:#ffffff;fill-opacity:1;fill-rule:nonzero;stroke:none"
             d="m 0,0 c -0.841,0 -1.593,-0.264 -2.257,-0.79 -0.665,-0.526 -0.997,-1.142 -0.997,-1.843 0,-0.702 0.169,-1.336 0.508,-1.899 0.339,-0.565 0.922,-1.349 1.749,-2.352 2.833,1.405 4.25,2.709 4.25,3.912 0,1.003 -0.332,1.749 -0.996,2.239 C 1.592,-0.245 0.84,0 0,0 m -5.21,-19.164 c 0.953,-0.715 2.22,-1.072 3.799,-1.072 1.58,0 3.26,0.726 5.041,2.181 -2.533,2.658 -4.539,4.89 -6.019,6.696 -2.834,-1.531 -4.25,-3.21 -4.25,-5.04 0,-1.129 0.476,-2.05 1.429,-2.765 m 3.273,-4.721 c -2.459,0 -4.551,0.683 -6.282,2.05 -1.73,1.366 -2.595,3.24 -2.595,5.623 0,2.834 2.055,5.354 6.168,7.561 -1.028,1.178 -1.749,2.143 -2.163,2.896 -0.413,0.752 -0.62,1.705 -0.62,2.859 0,2.005 0.74,3.547 2.219,4.626 1.48,1.078 3.222,1.618 5.229,1.618 2.005,0 3.71,-0.515 5.115,-1.542 1.404,-1.03 2.106,-2.471 2.106,-4.327 0,-2.482 -2.006,-4.827 -6.017,-7.033 2.006,-2.458 3.634,-4.339 4.889,-5.642 0.777,1.153 1.379,2.495 1.806,4.024 l 3.084,-2.182 c -0.652,-1.729 -1.392,-3.247 -2.22,-4.55 1.003,-1.029 2.282,-2.27 3.837,-3.724 l -2.821,-2.633 -3.46,3.423 c -2.207,-2.031 -4.965,-3.047 -8.275,-3.047" /></g><g
           transform="translate(24.2466,35.5131)"
           id="g36"><path
             id="path38"
             style="fill:#ffffff;fill-opacity:1;fill-rule:nonzero;stroke:none"
             d="M 0,0 C 0,0.705 -0.244,1.302 -0.73,1.789 -1.219,2.275 -1.815,2.52 -2.521,2.52 -3.218,2.52 -3.814,2.275 -4.312,1.789 -4.811,1.302 -5.059,0.705 -5.059,0 v -16.033 c 0,-0.696 0.248,-1.289 0.747,-1.781 0.498,-0.493 1.094,-0.739 1.791,-0.739 0.706,0 1.302,0.246 1.791,0.739 0.486,0.492 0.73,1.085 0.73,1.781 z M -2.409,6.936 C -0.461,6.936 1.196,6.25 2.562,4.88 3.927,3.51 4.609,1.855 4.609,-0.083 v -15.979 c 0,-1.95 -0.685,-3.606 -2.055,-4.971 -1.371,-1.365 -3.026,-2.048 -4.963,-2.048 -1.938,0 -3.585,0.685 -4.939,2.056 -1.355,1.37 -2.031,3.024 -2.031,4.963 v 15.979 c 0,1.949 0.685,3.605 2.055,4.971 1.37,1.365 3.009,2.048 4.915,2.048" /></g><g
           transform="translate(18.2573,4.3275)"
           id="g40"><path
             id="path42"
             style="fill:#ffffff;fill-opacity:1;fill-rule:nonzero;stroke:none"
             d="m 0,0 c 0.275,0 0.521,0.047 0.737,0.14 0.217,0.092 0.4,0.222 0.55,0.389 0.15,0.167 0.264,0.367 0.343,0.598 0.079,0.232 0.119,0.487 0.119,0.766 V 5.932 H 2.644 V 1.893 C 2.644,1.509 2.583,1.153 2.46,0.826 2.338,0.498 2.164,0.215 1.936,-0.025 1.709,-0.265 1.431,-0.453 1.104,-0.589 0.776,-0.725 0.408,-0.793 0,-0.793 c -0.408,0 -0.776,0.068 -1.104,0.204 -0.328,0.136 -0.606,0.324 -0.834,0.564 -0.229,0.24 -0.405,0.523 -0.527,0.851 -0.122,0.327 -0.183,0.683 -0.183,1.067 v 4.039 h 0.895 V 1.897 c 0,-0.278 0.039,-0.533 0.118,-0.765 C -1.556,0.9 -1.441,0.7 -1.292,0.533 -1.142,0.366 -0.958,0.236 -0.74,0.142 -0.522,0.048 -0.275,0 0,0" /></g><g
           transform="translate(23.0874,10.2289)"
           id="g44"><path
             id="path46"
             style="fill:#ffffff;fill-opacity:1;fill-rule:nonzero;stroke:none"
             d="m 0,0 c 0.039,-0.02 0.083,-0.061 0.132,-0.123 l 3.849,-5.008 c -0.009,0.08 -0.015,0.158 -0.018,0.234 -0.003,0.076 -0.005,0.149 -0.005,0.22 V 0.03 H 4.747 V -6.615 H 4.292 c -0.071,0 -0.131,0.012 -0.179,0.037 -0.048,0.024 -0.094,0.066 -0.141,0.125 L 0.127,-1.449 C 0.134,-1.526 0.138,-1.602 0.142,-1.676 0.145,-1.75 0.146,-1.818 0.146,-1.88 V -6.615 H -0.642 V 0.03 h 0.463 C -0.098,0.03 -0.039,0.021 0,0" /></g><path
           id="path48"
           style="fill:#ffffff;fill-opacity:1;fill-rule:nonzero;stroke:none"
           d="m 30.524,3.614 h -0.9 v 6.646 h 0.9 z" /><g
           transform="translate(31.5347,10.2592)"
           id="g50"><path
             id="path52"
             style="fill:#ffffff;fill-opacity:1;fill-rule:nonzero;stroke:none"
             d="m 0,0 h 0.719 c 0.08,0 0.145,-0.02 0.195,-0.061 0.049,-0.04 0.086,-0.09 0.11,-0.152 l 1.879,-4.688 c 0.043,-0.106 0.082,-0.22 0.118,-0.344 0.036,-0.123 0.071,-0.252 0.105,-0.385 0.027,0.133 0.058,0.262 0.09,0.385 0.033,0.124 0.07,0.238 0.114,0.344 l 1.869,4.688 C 5.221,-0.16 5.258,-0.112 5.31,-0.067 5.362,-0.022 5.428,0 5.505,0 H 6.229 L 3.52,-6.646 H 2.708 Z" /></g><g
           transform="translate(42.7066,10.2592)"
           id="g54"><path
             id="path56"
             style="fill:#ffffff;fill-opacity:1;fill-rule:nonzero;stroke:none"
             d="M 0,0 V -0.732 H -3.191 V -2.94 h 2.583 V -3.645 H -3.191 V -5.913 H 0 V -6.646 H -4.096 V 0 Z" /></g><g
           transform="translate(44.9878,7.0404)"
           id="g58"><path
             id="path60"
             style="fill:#ffffff;fill-opacity:1;fill-rule:nonzero;stroke:none"
             d="M 0,0 H 0.941 C 1.204,0 1.436,0.032 1.635,0.096 1.834,0.159 2.001,0.249 2.136,0.364 2.27,0.48 2.371,0.619 2.439,0.779 2.507,0.94 2.541,1.118 2.541,1.312 2.541,1.709 2.41,2.007 2.149,2.208 1.888,2.409 1.499,2.51 0.983,2.51 H 0 Z m 0,-0.653 v -2.774 h -0.896 v 6.646 h 1.879 c 0.42,0 0.784,-0.042 1.09,-0.127 C 2.379,3.006 2.632,2.884 2.831,2.723 3.03,2.562 3.178,2.368 3.274,2.141 3.37,1.913 3.418,1.659 3.418,1.378 3.418,1.143 3.381,0.923 3.307,0.72 3.232,0.516 3.125,0.332 2.984,0.17 2.844,0.008 2.672,-0.131 2.47,-0.245 2.267,-0.359 2.037,-0.446 1.78,-0.505 1.892,-0.57 1.991,-0.664 2.077,-0.788 L 4.016,-3.427 H 3.219 c -0.164,0 -0.285,0.064 -0.363,0.191 L 1.132,-0.862 C 1.079,-0.788 1.021,-0.734 0.96,-0.702 0.897,-0.67 0.806,-0.653 0.682,-0.653 Z" /></g><g
           transform="translate(53.3775,9.2201)"
           id="g62"><path
             id="path64"
             style="fill:#ffffff;fill-opacity:1;fill-rule:nonzero;stroke:none"
             d="m 0,0 c -0.027,-0.046 -0.058,-0.081 -0.088,-0.104 -0.031,-0.023 -0.071,-0.035 -0.121,-0.035 -0.053,0 -0.113,0.027 -0.183,0.079 -0.07,0.052 -0.158,0.111 -0.264,0.174 -0.107,0.064 -0.236,0.121 -0.385,0.174 -0.15,0.053 -0.332,0.079 -0.545,0.079 -0.201,0 -0.379,-0.027 -0.533,-0.082 -0.155,-0.054 -0.284,-0.127 -0.388,-0.22 -0.103,-0.092 -0.181,-0.202 -0.234,-0.327 -0.052,-0.125 -0.078,-0.26 -0.078,-0.405 0,-0.186 0.045,-0.34 0.136,-0.462 0.091,-0.122 0.212,-0.226 0.362,-0.312 0.15,-0.087 0.32,-0.163 0.51,-0.226 0.19,-0.063 0.385,-0.129 0.584,-0.197 0.2,-0.068 0.395,-0.145 0.584,-0.23 0.191,-0.085 0.361,-0.192 0.511,-0.322 0.15,-0.13 0.271,-0.289 0.361,-0.478 0.091,-0.188 0.137,-0.419 0.137,-0.695 0,-0.291 -0.05,-0.563 -0.148,-0.818 -0.099,-0.256 -0.243,-0.478 -0.434,-0.666 -0.19,-0.189 -0.424,-0.337 -0.7,-0.446 -0.276,-0.108 -0.591,-0.162 -0.943,-0.162 -0.43,0 -0.823,0.078 -1.176,0.235 -0.355,0.156 -0.656,0.367 -0.907,0.633 l 0.259,0.426 c 0.026,0.034 0.056,0.063 0.091,0.086 0.035,0.024 0.075,0.034 0.118,0.034 0.066,0 0.14,-0.034 0.223,-0.103 0.084,-0.07 0.188,-0.147 0.313,-0.23 0.125,-0.084 0.277,-0.16 0.455,-0.23 0.177,-0.069 0.394,-0.104 0.651,-0.104 0.214,0 0.403,0.03 0.57,0.088 0.167,0.059 0.309,0.142 0.425,0.248 0.116,0.107 0.205,0.235 0.267,0.383 0.061,0.149 0.092,0.314 0.092,0.496 0,0.201 -0.045,0.365 -0.136,0.494 -0.092,0.128 -0.211,0.236 -0.36,0.323 -0.148,0.086 -0.318,0.159 -0.507,0.219 -0.191,0.061 -0.385,0.122 -0.585,0.186 -0.2,0.063 -0.394,0.137 -0.584,0.221 -0.191,0.083 -0.36,0.191 -0.508,0.324 -0.149,0.133 -0.269,0.299 -0.36,0.499 -0.09,0.199 -0.136,0.445 -0.136,0.739 0,0.235 0.046,0.462 0.136,0.682 0.091,0.219 0.224,0.414 0.397,0.585 0.173,0.17 0.388,0.305 0.642,0.407 0.255,0.102 0.548,0.153 0.879,0.153 0.371,0 0.709,-0.058 1.016,-0.176 0.306,-0.118 0.573,-0.288 0.802,-0.51 z" /></g><path
           id="path66"
           style="fill:#ffffff;fill-opacity:1;fill-rule:nonzero;stroke:none"
           d="m 55.957,3.614 h -0.9 v 6.646 h 0.9 z" /><g
           transform="translate(62.2632,10.2592)"
           id="g68"><path
             id="path70"
             style="fill:#ffffff;fill-opacity:1;fill-rule:nonzero;stroke:none"
             d="m 0,0 v -0.756 h -2.147 v -5.89 h -0.9 v 5.89 H -5.203 V 0 Z" /></g><g
           transform="translate(65.7691,6.2572)"
           id="g72"><path
             id="path74"
             style="fill:#ffffff;fill-opacity:1;fill-rule:nonzero;stroke:none"
             d="M 0,0 V -2.644 H -0.896 V 0 L -3.33,4.002 h 0.788 c 0.081,0 0.145,-0.02 0.19,-0.061 0.046,-0.04 0.087,-0.088 0.121,-0.148 L -0.71,1.21 C -0.648,1.102 -0.597,1 -0.555,0.904 c 0.042,-0.095 0.08,-0.19 0.115,-0.283 0.033,0.096 0.07,0.191 0.111,0.288 0.04,0.096 0.091,0.196 0.152,0.301 L 1.34,3.793 c 0.028,0.05 0.065,0.097 0.113,0.142 0.049,0.044 0.111,0.067 0.189,0.067 h 0.797 z" /></g></g></g></g></svg>