<?xml version="1.0" encoding="UTF-8"?>
<svg width="32px" height="32px" viewBox="0 0 32 32" version="1.1" xmlns="http://www.w3.org/2000/svg" xmlns:xlink="http://www.w3.org/1999/xlink">
    <!-- Generator: Sketch 50.2 (55047) - http://www.bohemiancoding.com/sketch -->
    <title>Group 22</title>
    <desc>Created with Sketch.</desc>
    <defs></defs>
    <g id="Symbols" stroke="none" stroke-width="1" fill="none" fill-rule="evenodd">
        <g id="Group-22">
            <circle id="Oval-5-Copy" fill="#DEE2E7" cx="16" cy="16" r="16"></circle>
            <g id="twitter" transform="translate(9.600000, 11.200000)" fill="#22292E" fill-rule="nonzero">
                <path d="M11.48425,2.5929 C11.492375,2.7066 11.492375,2.820325 11.492375,2.934025 C11.492375,6.402025 8.8528,10.397975 4.028425,10.397975 C2.542125,10.397975 1.161425,9.9675 0,9.220325 C0.211175,9.244675 0.4142,9.2528 0.6335,9.2528 C1.859875,9.2528 2.988825,8.8386 3.89035,8.132 C2.73705,8.107625 1.77055,7.3523 1.43755,6.3127 C1.6,6.33705 1.762425,6.3533 1.933,6.3533 C2.168525,6.3533 2.404075,6.3208 2.62335,6.263975 C1.421325,6.0203 0.519775,4.964475 0.519775,3.68935 L0.519775,3.656875 C0.869,3.8518 1.275125,3.973625 1.70555,3.98985 C0.99895,3.518775 0.536025,2.714725 0.536025,1.805075 C0.536025,1.317775 0.66595,0.871075 0.893375,0.481225 C2.18475,2.0731 4.125875,3.112675 6.3025,3.2264 C6.2619,3.031475 6.237525,2.82845 6.237525,2.6254 C6.237525,1.1797 7.407075,0.00205 8.860875,0.00205 C9.6162,0.00205 10.298425,0.3188 10.777625,0.830475 C11.3705,0.716775 11.939025,0.497475 12.4426,0.196975 C12.24765,0.806125 11.83345,1.3178 11.2893,1.64265 C11.817225,1.585825 12.3289,1.4396 12.79995,1.236575 C12.44265,1.75635 11.995925,2.219275 11.48425,2.5929 Z" id="Shape"></path>
            </g>
        </g>
    </g>
</svg>