<svg width="32" height="32" viewBox="0 0 32 32" xmlns="http://www.w3.org/2000/svg"><title>Group 20</title><g fill="none" fill-rule="evenodd"><circle fill="#DEE2E7" cx="16" cy="16" r="16"/><path d="M12.465 22.4H9.811v-8.546h2.654V22.4zm-1.328-9.711A1.55 1.55 0 0 1 9.6 11.137a1.537 1.537 0 0 1 3.074 0 1.55 1.55 0 0 1-1.537 1.552zm11.26 9.711H19.75v-4.16c0-.991-.02-2.263-1.38-2.263-1.38 0-1.59 1.077-1.59 2.192V22.4h-2.651v-8.546h2.545v1.166h.037c.354-.671 1.22-1.38 2.51-1.38 2.686 0 3.18 1.769 3.18 4.066V22.4h-.003z" fill="#22292E" fill-rule="nonzero"/></g></svg>