<svg width="32" height="32" viewBox="0 0 32 32" xmlns="http://www.w3.org/2000/svg"><title>Group 22</title><g fill="none" fill-rule="evenodd"><circle fill="#DEE2E7" cx="16" cy="16" r="16"/><path d="M21.084 13.793c.008.114.008.227.008.341 0 3.468-2.64 7.464-7.464 7.464A7.413 7.413 0 0 1 9.6 20.42c.211.025.414.033.633.033a5.254 5.254 0 0 0 3.257-1.121 2.628 2.628 0 0 1-2.452-1.82 2.775 2.775 0 0 0 1.186-.049 2.624 2.624 0 0 1-2.104-2.574v-.032c.349.195.755.317 1.186.333a2.622 2.622 0 0 1-.813-3.509 7.457 7.457 0 0 0 5.41 2.745 2.961 2.961 0 0 1-.065-.6 2.622 2.622 0 0 1 2.623-2.624c.755 0 1.437.317 1.917.828a5.165 5.165 0 0 0 1.665-.633c-.195.61-.61 1.12-1.154 1.446a5.259 5.259 0 0 0 1.51-.406 5.64 5.64 0 0 1-1.315 1.356z" fill="#22292E" fill-rule="nonzero"/></g></svg>