<svg width="32" height="32" viewBox="0 0 32 32" xmlns="http://www.w3.org/2000/svg"><title>Group 21</title><g fill="none" fill-rule="evenodd"><circle fill="#DEE2E7" cx="16" cy="16" r="16"/><path d="M17.54 15.044c.044.226.074.453.074.747 0 2.564-1.72 4.382-4.309 4.382a4.485 4.485 0 0 1-4.486-4.486 4.485 4.485 0 0 1 4.486-4.487c1.212 0 2.222.44 3.005 1.175l-1.218 1.17c-.33-.319-.912-.692-1.787-.692-1.53 0-2.779 1.267-2.779 2.834 0 1.566 1.249 2.833 2.78 2.833 1.774 0 2.441-1.279 2.545-1.934h-2.546v-1.542h4.236zm4.333.15v-1.302h-1.308v1.302h-1.303v1.309h1.303v1.302h1.308v-1.302h1.302v-1.309h-1.302z" fill="#22292E" fill-rule="nonzero"/></g></svg>